<svg width="24" height="24" viewBox="0 0 24 24" fill="none" xmlns="http://www.w3.org/2000/svg">
<path d="M20.25 12.1406H11.8594V3.74998C11.8594 3.64685 11.775 3.56248 11.6719 3.56248H11.0625C9.83134 3.56046 8.61192 3.80191 7.47441 4.27292C6.3369 4.74394 5.30374 5.43522 4.43439 6.30701C3.57824 7.16051 2.89607 8.17223 2.4258 9.28592C1.93643 10.441 1.68532 11.683 1.68751 12.9375C1.6855 14.1687 1.92694 15.3881 2.39796 16.5256C2.86897 17.6631 3.56026 18.6963 4.43205 19.5656C5.2922 20.4258 6.29533 21.1031 7.41095 21.5742C8.56604 22.0636 9.80804 22.3147 11.0625 22.3125C12.2937 22.3145 13.5131 22.0731 14.6506 21.602C15.7881 21.131 16.8213 20.4397 17.6906 19.5679C18.5508 18.7078 19.2281 17.7047 19.6992 16.589C20.1886 15.434 20.4397 14.192 20.4375 12.9375V12.3281C20.4375 12.225 20.3531 12.1406 20.25 12.1406ZM16.5399 18.464C15.8141 19.1841 14.9534 19.754 14.0071 20.1409C13.0607 20.5277 12.0474 20.7241 11.025 20.7187C8.96017 20.7094 7.01955 19.9008 5.55939 18.4406C4.08986 16.9711 3.28126 15.0164 3.28126 12.9375C3.28126 10.8586 4.08986 8.90389 5.55939 7.43435C6.83908 6.15467 8.48673 5.3742 10.2656 5.19607V13.7344H18.8039C18.6235 15.5226 17.836 17.1797 16.5399 18.464ZM22.3125 10.8375L22.2516 10.1765C22.0524 8.01795 21.0938 5.98123 19.5516 4.44373C18.0083 2.90341 15.9758 1.95013 13.8047 1.74842L13.1414 1.68748C13.0313 1.6781 12.9375 1.76248 12.9375 1.87264V10.875C12.9375 10.9781 13.0219 11.0625 13.125 11.0625L22.125 11.039C22.2352 11.039 22.3219 10.9453 22.3125 10.8375ZM14.5266 9.47342V3.45935C16.003 3.76837 17.3579 4.49955 18.4266 5.56404C19.4977 6.63279 20.2313 7.99217 20.536 9.45701L14.5266 9.47342Z" fill="black"/>
</svg>
