<svg width="12" height="12" viewBox="0 0 28 30" fill="none" xmlns="http://www.w3.org/2000/svg" >
<path d="M4.39396 14.9991L15.0574 1.37454C15.2221 1.16561 15.0734 0.856232 14.8042 0.856232H11.6984C11.5016 0.856232 11.3127 0.948643 11.1922 1.10132L0.934588 14.2076C0.75694 14.4339 0.660385 14.7134 0.660385 15.0011C0.660385 15.2888 0.75694 15.5683 0.934588 15.7946L11.1922 28.8969C11.3127 29.0536 11.5016 29.1419 11.6984 29.1419H14.8042C15.0734 29.1419 15.2221 28.8326 15.0574 28.6236L4.39396 14.9991ZM16.6082 14.9991L27.2716 1.37454C27.4364 1.16561 27.2877 0.856232 27.0185 0.856232H23.9127C23.7158 0.856232 23.527 0.948643 23.4065 1.10132L13.1489 14.2076C12.9712 14.4339 12.8747 14.7134 12.8747 15.0011C12.8747 15.2888 12.9712 15.5683 13.1489 15.7946L23.4065 28.8969C23.527 29.0536 23.7158 29.1419 23.9127 29.1419H27.0185C27.2877 29.1419 27.4364 28.8326 27.2716 28.6236L16.6082 14.9991Z" fill="black" fill-opacity="0.85"/>
</svg>

