<svg width="13" height="14" viewBox="0 0 13 14" fill="none" xmlns="http://www.w3.org/2000/svg">
<path d="M6.33594 0.875C2.95352 0.875 0.210938 3.61758 0.210938 7C0.210938 10.3824 2.95352 13.125 6.33594 13.125C9.71836 13.125 12.4609 10.3824 12.4609 7C12.4609 3.61758 9.71836 0.875 6.33594 0.875ZM6.33594 12.0859C3.52773 12.0859 1.25 9.8082 1.25 7C1.25 4.1918 3.52773 1.91406 6.33594 1.91406C9.14414 1.91406 11.4219 4.1918 11.4219 7C11.4219 9.8082 9.14414 12.0859 6.33594 12.0859Z" fill="#8C8C8C"/>
<path d="M5.67947 4.59375C5.67947 4.7678 5.74861 4.93472 5.87169 5.05779C5.99476 5.18086 6.16168 5.25 6.33572 5.25C6.50977 5.25 6.67669 5.18086 6.79976 5.05779C6.92283 4.93472 6.99197 4.7678 6.99197 4.59375C6.99197 4.4197 6.92283 4.25278 6.79976 4.12971C6.67669 4.00664 6.50977 3.9375 6.33572 3.9375C6.16168 3.9375 5.99476 4.00664 5.87169 4.12971C5.74861 4.25278 5.67947 4.4197 5.67947 4.59375ZM6.66385 6.125H6.0076C5.94744 6.125 5.89822 6.17422 5.89822 6.23438V9.95312C5.89822 10.0133 5.94744 10.0625 6.0076 10.0625H6.66385C6.72401 10.0625 6.77322 10.0133 6.77322 9.95312V6.23438C6.77322 6.17422 6.72401 6.125 6.66385 6.125Z" fill="#8C8C8C"/>
</svg>
