<svg width="12" height="12" viewBox="0 0 16 18" fill="none" xmlns="http://www.w3.org/2000/svg">
<path d="M2.39569 9L8.61601 1.05234C8.7121 0.930469 8.62538 0.75 8.46835 0.75H6.65663C6.54179 0.75 6.43163 0.803906 6.36132 0.892969L0.377725 8.53828C0.274097 8.67032 0.217773 8.83332 0.217773 9.00117C0.217773 9.16902 0.274097 9.33202 0.377725 9.46406L6.36132 17.107C6.43163 17.1984 6.54179 17.25 6.65663 17.25H8.46835C8.62538 17.25 8.7121 17.0695 8.61601 16.9477L2.39569 9ZM9.52069 9L15.741 1.05234C15.8371 0.930469 15.7504 0.75 15.5933 0.75H13.7816C13.6668 0.75 13.5566 0.803906 13.4863 0.892969L7.50272 8.53828C7.3991 8.67032 7.34277 8.83332 7.34277 9.00117C7.34277 9.16902 7.3991 9.33202 7.50272 9.46406L13.4863 17.107C13.5566 17.1984 13.6668 17.25 13.7816 17.25H15.5933C15.7504 17.25 15.8371 17.0695 15.741 16.9477L9.52069 9Z" fill="black"/>
</svg>
