<svg width="24" height="24" viewBox="0 0 24 24" fill="none" xmlns="http://www.w3.org/2000/svg">
<path d="M22.3125 18.5625H1.6875C1.58437 18.5625 1.5 18.6469 1.5 18.75V20.0625C1.5 20.1656 1.58437 20.25 1.6875 20.25H22.3125C22.4156 20.25 22.5 20.1656 22.5 20.0625V18.75C22.5 18.6469 22.4156 18.5625 22.3125 18.5625ZM22.3125 3.75H1.6875C1.58437 3.75 1.5 3.83437 1.5 3.9375V5.25C1.5 5.35312 1.58437 5.4375 1.6875 5.4375H22.3125C22.4156 5.4375 22.5 5.35312 22.5 5.25V3.9375C22.5 3.83437 22.4156 3.75 22.3125 3.75ZM19.875 15.4688C20.0812 15.4688 20.25 15.3 20.25 15.0938V8.90625C20.25 8.7 20.0812 8.53125 19.875 8.53125H4.125C3.91875 8.53125 3.75 8.7 3.75 8.90625V15.0938C3.75 15.3 3.91875 15.4688 4.125 15.4688H19.875ZM5.4375 10.2188H18.5625V13.7812H5.4375V10.2188Z" fill="black"/>
</svg>
