<svg width="12" height="12" viewBox="0 0 12 18" fill="none" xmlns="http://www.w3.org/2000/svg">
<path d="M10.9461 8.40931L0.38047 0.15697C0.352862 0.135234 0.319682 0.121727 0.284743 0.117998C0.249804 0.114269 0.214522 0.120471 0.182948 0.135891C0.151375 0.15131 0.124791 0.175323 0.106249 0.20517C0.0877078 0.235017 0.0779604 0.269489 0.0781271 0.304626V2.11635C0.0781271 2.23119 0.132033 2.34134 0.221096 2.41166L8.65857 8.99994L0.221096 15.5882C0.12969 15.6585 0.0781271 15.7687 0.0781271 15.8835V17.6953C0.0781271 17.8523 0.258595 17.939 0.38047 17.8429L10.9461 9.59056C11.0359 9.52052 11.1085 9.43091 11.1585 9.32857C11.2084 9.22622 11.2344 9.11383 11.2344 8.99994C11.2344 8.88605 11.2084 8.77366 11.1585 8.67131C11.1085 8.56897 11.0359 8.47936 10.9461 8.40931Z" fill="black"/>
</svg>
