<svg width="24" height="24" viewBox="0 0 24 24" fill="none" xmlns="http://www.w3.org/2000/svg">
<path d="M20.8717 17.7023L12.6076 6.30938C12.3076 5.89688 11.6936 5.89688 11.3959 6.30938L3.12952 17.7023C3.10918 17.7304 3.09699 17.7635 3.09431 17.798C3.09163 17.8325 3.09857 17.8671 3.11434 17.8979C3.13012 17.9288 3.15412 17.9546 3.18369 17.9726C3.21326 17.9906 3.24724 18.0001 3.28186 18H5.03968C5.15921 18 5.27171 17.9414 5.34202 17.8453L12.0006 8.66719L18.6592 17.8453C18.7295 17.9414 18.842 18 18.9616 18H20.7194C20.8717 18 20.9608 17.8266 20.8717 17.7023Z" fill="black"/>
</svg>
