<svg width="24" height="24" viewBox="0 0 24 24" fill="none" xmlns="http://www.w3.org/2000/svg">
<path fill-rule="evenodd" clip-rule="evenodd" d="M7.37166 3.95287C8.59918 2.70247 10.264 2 12 2C13.736 2 15.4008 2.70247 16.6283 3.95287C17.8558 5.20327 18.5455 6.89917 18.5455 8.6675V11.1678C18.5455 12.239 19.0013 12.8999 19.568 13.5543C19.6336 13.6299 19.7056 13.7107 19.7809 13.7951C20.0089 14.0508 20.2667 14.3399 20.4641 14.6214C20.748 15.0263 21 15.5335 21 16.1684C21 16.8754 20.5959 17.4252 20.1097 17.813C19.6234 18.201 18.964 18.5067 18.2043 18.7461C16.6765 19.2276 14.542 19.5022 12 19.5022C9.45798 19.5022 7.32346 19.2276 5.7957 18.7461C5.03598 18.5067 4.37664 18.201 3.89032 17.813C3.40415 17.4252 3 16.8754 3 16.1684C3 15.5335 3.25196 15.0263 3.53592 14.6214C3.73333 14.3399 3.99111 14.0508 4.21907 13.7951C4.29437 13.7107 4.36641 13.6299 4.43195 13.5543C4.99874 12.8999 5.45455 12.239 5.45455 11.1678V8.6675C5.45455 6.89917 6.14415 5.20327 7.37166 3.95287ZM12 3.66688C10.698 3.66688 9.44938 4.19373 8.52875 5.13153C7.60812 6.06932 7.09091 7.34125 7.09091 8.6675V11.1678C7.09091 12.847 6.31944 13.8946 5.65896 14.6571C5.55269 14.7798 5.45616 14.8881 5.36772 14.9873C5.16516 15.2145 5.00504 15.3941 4.86749 15.5902C4.69123 15.8416 4.63636 16.0116 4.63636 16.1684C4.63628 16.1723 4.63387 16.289 4.89917 16.5007C5.16711 16.7144 5.61742 16.9451 6.2793 17.1537C7.59472 17.5682 9.55111 17.8353 12 17.8353C14.4489 17.8353 16.4053 17.5682 17.7207 17.1537C18.3826 16.9451 18.8329 16.7144 19.1008 16.5007C19.3661 16.289 19.3637 16.1723 19.3636 16.1685C19.3636 16.0117 19.3088 15.8416 19.1325 15.5902C18.995 15.3941 18.8348 15.2145 18.6323 14.9873C18.5438 14.8881 18.4473 14.7798 18.341 14.6571C17.6806 13.8946 16.9091 12.847 16.9091 11.1678V8.6675C16.9091 7.34125 16.3919 6.06932 15.4713 5.13153C14.5506 4.19373 13.302 3.66688 12 3.66688Z" fill="#262626"/>
<path d="M12 20.3356C11.1728 20.3356 10.3955 20.3073 9.66409 20.2523C9.82003 20.759 10.1307 21.2018 10.5508 21.5161C10.971 21.8305 11.4787 22 12 22C12.5213 22 13.029 21.8305 13.4492 21.5161C13.8693 21.2018 14.18 20.759 14.3359 20.2523C13.6045 20.3073 12.8272 20.3356 12 20.3356Z" fill="#262626"/>
</svg>
