<svg width="24" height="24" viewBox="0 0 24 24" fill="none" xmlns="http://www.w3.org/2000/svg">
<path d="M16.0646 8.31494C16.0646 8.21182 15.9802 8.12744 15.8771 8.12744L14.3303 8.13447L12.0006 10.9118L9.67324 8.13682L8.12402 8.12979C8.0209 8.12979 7.93652 8.21182 7.93652 8.31729C7.93652 8.36182 7.95293 8.404 7.98105 8.43916L11.0303 12.072L7.98105 15.7024C7.95273 15.7368 7.93702 15.7798 7.93652 15.8243C7.93652 15.9274 8.0209 16.0118 8.12402 16.0118L9.67324 16.0048L12.0006 13.2274L14.3279 16.0024L15.8748 16.0095C15.9779 16.0095 16.0623 15.9274 16.0623 15.822C16.0623 15.7774 16.0459 15.7353 16.0177 15.7001L12.9732 12.0696L16.0224 8.43682C16.0506 8.404 16.0646 8.35947 16.0646 8.31494Z" fill="black"/>
<path d="M12 1.52344C6.20156 1.52344 1.5 6.225 1.5 12.0234C1.5 17.8219 6.20156 22.5234 12 22.5234C17.7984 22.5234 22.5 17.8219 22.5 12.0234C22.5 6.225 17.7984 1.52344 12 1.52344ZM12 20.7422C7.18594 20.7422 3.28125 16.8375 3.28125 12.0234C3.28125 7.20938 7.18594 3.30469 12 3.30469C16.8141 3.30469 20.7188 7.20938 20.7188 12.0234C20.7188 16.8375 16.8141 20.7422 12 20.7422Z" fill="black"/>
</svg>
