<svg width="20" height="20" viewBox="0 0 20 20" fill="none" xmlns="http://www.w3.org/2000/svg">
<path d="M18.625 0.625H1.375C0.960156 0.625 0.625 0.960156 0.625 1.375V18.625C0.625 19.0398 0.960156 19.375 1.375 19.375H9.8125C9.91562 19.375 10 19.2906 10 19.1875V17.875C10 17.7719 9.91562 17.6875 9.8125 17.6875H2.3125V2.3125H17.6875V9.8125C17.6875 9.91562 17.7719 10 17.875 10H19.1875C19.2906 10 19.375 9.91562 19.375 9.8125V1.375C19.375 0.960156 19.0398 0.625 18.625 0.625ZM13.3117 12.0484L14.5352 10.825C14.5599 10.8001 14.5772 10.7687 14.5851 10.7345C14.5929 10.7002 14.591 10.6645 14.5795 10.6313C14.568 10.5981 14.5475 10.5687 14.5202 10.5466C14.4928 10.5245 14.4599 10.5105 14.425 10.5062L10.2203 10.0141C10.1008 10 9.99766 10.1008 10.0117 10.2227L10.5039 14.4273C10.5227 14.582 10.7125 14.6477 10.8227 14.5375L12.0508 13.3094L18.0555 19.3141C18.1281 19.3867 18.2477 19.3867 18.3203 19.3141L19.3141 18.3203C19.3867 18.2477 19.3867 18.1281 19.3141 18.0555L13.3117 12.0484Z" fill="black"/>
</svg>
