<svg width="19" height="18" viewBox="0 0 19 18" fill="none" xmlns="http://www.w3.org/2000/svg">
<path d="M17.8195 14.7516H16.5586C16.4602 14.7516 16.3781 14.8336 16.3781 14.932V16.3805H1.61953V1.61953H16.3805V3.06797C16.3805 3.16641 16.4625 3.24844 16.5609 3.24844H17.8219C17.9203 3.24844 18.0023 3.16875 18.0023 3.06797V0.719531C18.0023 0.321094 17.6813 0 17.2828 0H0.719531C0.321094 0 0 0.321094 0 0.719531V17.2805C0 17.6789 0.321094 18 0.719531 18H17.2805C17.6789 18 18 17.6789 18 17.2805V14.932C18 14.8312 17.918 14.7516 17.8195 14.7516ZM18.2555 8.85234L14.9297 6.22734C14.8055 6.12891 14.625 6.21797 14.625 6.375V8.15625H7.26562C7.1625 8.15625 7.07812 8.24063 7.07812 8.34375V9.65625C7.07812 9.75937 7.1625 9.84375 7.26562 9.84375H14.625V11.625C14.625 11.782 14.8078 11.8711 14.9297 11.7727L18.2555 9.14766C18.2779 9.13012 18.296 9.10771 18.3085 9.08212C18.3209 9.05654 18.3274 9.02846 18.3274 9C18.3274 8.97154 18.3209 8.94346 18.3085 8.91788C18.296 8.89229 18.2779 8.86988 18.2555 8.85234Z" fill="black"/>
</svg>
