<svg width="12" height="12" viewBox="0 0 12 12" fill="none" xmlns="http://www.w3.org/2000/svg">
<path d="M1.56086 5.89554C1.57425 5.31027 1.69479 4.74241 1.92113 4.20804C2.15282 3.65893 2.48497 3.16741 2.90818 2.74286C3.3314 2.3183 3.82425 1.98616 4.37336 1.75446C4.94122 1.51473 5.5439 1.39286 6.16666 1.39286C6.78943 1.39286 7.39211 1.51473 7.95863 1.75446C8.50616 1.98569 9.00338 2.32141 9.42247 2.74286C9.55506 2.87545 9.67961 3.01607 9.79479 3.16339L8.98854 3.79286C8.97259 3.8052 8.96044 3.82179 8.9535 3.84073C8.94656 3.85966 8.9451 3.88017 8.9493 3.8999C8.9535 3.91963 8.96318 3.93777 8.97723 3.95224C8.99127 3.96671 9.00912 3.97692 9.02872 3.9817L11.3818 4.55759C11.4488 4.57366 11.5144 4.52277 11.5144 4.45446L11.5251 2.0317C11.5251 1.94196 11.422 1.89107 11.3524 1.94732L10.597 2.53795C9.56711 1.22009 7.96532 0.375 6.16532 0.375C3.09702 0.375 0.600592 2.83393 0.543002 5.89018C0.542645 5.90447 0.545152 5.91869 0.550376 5.932C0.5556 5.94531 0.563436 5.95744 0.573421 5.96768C0.583406 5.97791 0.595338 5.98605 0.608515 5.9916C0.621692 5.99715 0.635847 6.00001 0.650145 6H1.45372C1.51265 6 1.55952 5.95313 1.56086 5.89554ZM11.6859 6H10.8823C10.8234 6 10.7765 6.04688 10.7751 6.10446C10.7618 6.68973 10.6412 7.25759 10.4149 7.79197C10.1832 8.34107 9.85104 8.83393 9.42783 9.25714C9.00066 9.68608 8.4928 10.0262 7.93355 10.2579C7.37429 10.4896 6.7747 10.6083 6.16934 10.6071C5.56419 10.6083 4.96481 10.4896 4.40577 10.2579C3.84673 10.0262 3.33911 9.68604 2.9122 9.25714C2.77961 9.12456 2.65506 8.98393 2.53988 8.83661L3.34613 8.20714C3.36208 8.1948 3.37423 8.17821 3.38117 8.15927C3.38811 8.14034 3.38956 8.11983 3.38537 8.1001C3.38117 8.08037 3.37149 8.06223 3.35744 8.04776C3.34339 8.03329 3.32554 8.02308 3.30595 8.0183L0.952824 7.44241C0.885859 7.42634 0.820234 7.47723 0.820234 7.54554L0.810859 9.96964C0.810859 10.0594 0.913984 10.1103 0.983627 10.054L1.73898 9.46339C2.7689 10.7799 4.37068 11.625 6.17068 11.625C9.24033 11.625 11.7354 9.16473 11.793 6.10982C11.7934 6.09553 11.7909 6.08131 11.7856 6.068C11.7804 6.05469 11.7726 6.04256 11.7626 6.03232C11.7526 6.02209 11.7407 6.01396 11.7275 6.0084C11.7143 6.00285 11.7002 6 11.6859 6V6Z" fill="#FA8C16"/>
</svg>
