<svg width="16" height="16" viewBox="0 0 16 16" fill="none" xmlns="http://www.w3.org/2000/svg">
<path d="M13.875 12.375H3.125V2.625C3.125 2.55625 3.06875 2.5 3 2.5H2.125C2.05625 2.5 2 2.55625 2 2.625V13.375C2 13.4438 2.05625 13.5 2.125 13.5H13.875C13.9438 13.5 14 13.4438 14 13.375V12.5C14 12.4312 13.9438 12.375 13.875 12.375ZM4.5 11.125H5.375C5.44375 11.125 5.5 11.0688 5.5 11V8.75C5.5 8.68125 5.44375 8.625 5.375 8.625H4.5C4.43125 8.625 4.375 8.68125 4.375 8.75V11C4.375 11.0688 4.43125 11.125 4.5 11.125ZM6.875 11.125H7.75C7.81875 11.125 7.875 11.0688 7.875 11V6C7.875 5.93125 7.81875 5.875 7.75 5.875H6.875C6.80625 5.875 6.75 5.93125 6.75 6V11C6.75 11.0688 6.80625 11.125 6.875 11.125ZM9.25 11.125H10.125C10.1938 11.125 10.25 11.0688 10.25 11V7.21875C10.25 7.15 10.1938 7.09375 10.125 7.09375H9.25C9.18125 7.09375 9.125 7.15 9.125 7.21875V11C9.125 11.0688 9.18125 11.125 9.25 11.125ZM11.625 11.125H12.5C12.5688 11.125 12.625 11.0688 12.625 11V4.75C12.625 4.68125 12.5688 4.625 12.5 4.625H11.625C11.5562 4.625 11.5 4.68125 11.5 4.75V11C11.5 11.0688 11.5562 11.125 11.625 11.125Z" fill="white" fill-opacity="0.6"/>
</svg>
