<svg width="230" height="172" viewBox="0 0 230 172" fill="none" xmlns="http://www.w3.org/2000/svg">
<g clip-path="url(#clip0_1090_48949)">
<path d="M230 151.152H0V151.268H230V151.152Z" fill="#EBEBEB"/>
<path d="M206.954 158.582H191.719V158.697H206.954V158.582Z" fill="#EBEBEB"/>
<path d="M185.928 158.582H153.355V158.697H185.928V158.582Z" fill="#EBEBEB"/>
<path d="M135.39 154.297H126.562V154.412H135.39V154.297Z" fill="#EBEBEB"/>
<path d="M39.9062 155.074H24.1328V155.19H39.9062V155.074Z" fill="#EBEBEB"/>
<path d="M72.681 155.074H44V155.19H72.681V155.074Z" fill="#EBEBEB"/>
<path d="M103.565 157.02H86.6328V157.135H103.565V157.02Z" fill="#EBEBEB"/>
<path d="M109.022 130.566H20.2001C19.5043 130.565 18.8374 130.287 18.3458 129.793C17.8542 129.299 17.5781 128.629 17.5781 127.931V2.63614C17.5842 1.94189 17.863 1.27808 18.3539 0.788886C18.8448 0.299692 19.5083 0.0246268 20.2001 0.0234375H109.022C109.718 0.0234375 110.386 0.301136 110.879 0.795441C111.371 1.28975 111.648 1.96017 111.648 2.65922V127.931C111.648 128.277 111.58 128.619 111.448 128.939C111.316 129.259 111.123 129.55 110.879 129.794C110.635 130.039 110.345 130.233 110.027 130.366C109.708 130.498 109.366 130.566 109.022 130.566ZM20.2001 0.115759C19.5348 0.116982 18.8972 0.383061 18.4271 0.855593C17.9571 1.32812 17.6931 1.96849 17.6931 2.63614V127.931C17.6931 128.598 17.9571 129.239 18.4271 129.711C18.8972 130.184 19.5348 130.45 20.2001 130.451H109.022C109.687 130.449 110.324 130.182 110.795 129.71C111.265 129.238 111.531 128.598 111.533 127.931V2.63614C111.531 1.96844 111.265 1.32879 110.795 0.85665C110.324 0.384512 109.687 0.118192 109.022 0.115759H20.2001Z" fill="#EBEBEB"/>
<path d="M208.523 130.566H119.697C119.001 130.564 118.334 130.285 117.842 129.792C117.35 129.298 117.073 128.629 117.07 127.931V2.63614C117.078 1.94147 117.357 1.27766 117.849 0.788597C118.341 0.29953 119.005 0.0246138 119.697 0.0234375H208.523C209.214 0.0258399 209.876 0.301441 210.366 0.790506C210.856 1.27957 211.134 1.94269 211.14 2.63614V127.931C211.141 128.276 211.074 128.618 210.942 128.938C210.811 129.257 210.619 129.548 210.376 129.792C210.133 130.037 209.844 130.232 209.526 130.364C209.208 130.497 208.867 130.566 208.523 130.566ZM119.697 0.115759C119.032 0.118192 118.394 0.384512 117.924 0.85665C117.453 1.32879 117.188 1.96844 117.185 2.63614V127.931C117.188 128.598 117.453 129.238 117.924 129.71C118.394 130.182 119.032 130.449 119.697 130.451H208.523C209.188 130.449 209.826 130.182 210.296 129.71C210.767 129.238 211.032 128.598 211.035 127.931V2.63614C211.032 1.96844 210.767 1.32879 210.296 0.85665C209.826 0.384512 209.188 0.118192 208.523 0.115759H119.697Z" fill="#EBEBEB"/>
<path d="M148.777 9.15234H29.5859V81.5234H148.777V9.15234Z" fill="#E6E6E6"/>
<path d="M147.974 9.15234H27.7305V81.5234H147.974V9.15234Z" fill="#F5F5F5"/>
<path d="M144.627 12.7695H31.0625V77.9025H144.627V12.7695Z" fill="#FAFAFA"/>
<path d="M135.646 77.9018L111.197 12.7734H100.902L125.351 77.9018H135.646Z" fill="white"/>
<path d="M122.433 77.9018L97.9792 12.7734H90.8906L115.344 77.9018H122.433Z" fill="white"/>
<path d="M79.2336 77.9018L54.78 12.7734H47.6914L72.1404 77.9018H79.2336Z" fill="white"/>
<path d="M59.6633 12.7734H55.6797V77.9064H59.6633V12.7734Z" fill="#E6E6E6"/>
<path d="M122.687 12.7734H118.703V77.9064H122.687V12.7734Z" fill="#E6E6E6"/>
<path d="M58.9386 10.082H53.9062V80.2004H58.9386V10.082Z" fill="#F5F5F5"/>
<path d="M121.97 10.0781H116.938V80.1965H121.97V10.0781Z" fill="#F5F5F5"/>
<path d="M31.4245 12.7734H31.0703V77.9064H31.4245V12.7734Z" fill="#E6E6E6"/>
<path d="M152.395 4.49609H26.3407C26.0943 4.49609 25.8945 4.69656 25.8945 4.94385V4.97155C25.8945 5.21884 26.0943 5.41931 26.3407 5.41931H152.395C152.641 5.41931 152.841 5.21884 152.841 4.97155V4.94385C152.841 4.69656 152.641 4.49609 152.395 4.49609Z" fill="#E6E6E6"/>
<path d="M148.779 6.24909C148.932 6.24671 149.078 6.18467 149.186 6.0761C149.294 5.96754 149.356 5.82098 149.358 5.66746V4.25032C149.358 4.09564 149.298 3.94722 149.189 3.83741C149.08 3.7276 148.933 3.6653 148.779 3.66408C148.703 3.66347 148.627 3.67809 148.556 3.7071C148.486 3.73611 148.422 3.77893 148.368 3.83306C148.314 3.8872 148.271 3.95156 148.242 4.0224C148.213 4.09325 148.199 4.16916 148.199 4.24571V5.66285C148.199 5.7394 148.213 5.81531 148.242 5.88615C148.271 5.95699 148.314 6.02136 148.368 6.07549C148.422 6.12962 148.486 6.17244 148.556 6.20145C148.627 6.23046 148.703 6.24509 148.779 6.24447V6.24909Z" fill="#E6E6E6"/>
<path d="M32.8172 6.24907C32.8935 6.24969 32.9691 6.23506 33.0397 6.20605C33.1103 6.17704 33.1745 6.13422 33.2284 6.08009C33.2823 6.02595 33.325 5.96159 33.3539 5.89075C33.3828 5.8199 33.3974 5.744 33.3968 5.66744V4.25031C33.398 4.17376 33.384 4.09773 33.3557 4.02666C33.3273 3.95558 33.2852 3.89088 33.2317 3.83632C33.1781 3.78175 33.1143 3.73842 33.044 3.70885C32.9736 3.67928 32.8981 3.66405 32.8218 3.66406C32.6676 3.66528 32.5202 3.72758 32.4117 3.83739C32.3031 3.9472 32.2422 4.09562 32.2422 4.25031V5.66744C32.2445 5.82018 32.3057 5.96606 32.4129 6.07451C32.5201 6.18295 32.665 6.24551 32.8172 6.24907Z" fill="#E6E6E6"/>
<path opacity="0.6" d="M146.645 4.95703H26.4609V56.5972H146.645V4.95703Z" fill="#EBEBEB"/>
<path d="M200.131 23.9414H169.707V55.16H200.131V23.9414Z" fill="#E0E0E0"/>
<path d="M199.331 23.9414H167.871V55.16H199.331V23.9414Z" fill="#F5F5F5"/>
<path d="M196.692 27.4805H170.504V51.6134H196.692V27.4805Z" fill="white"/>
<path d="M199.948 94.957H191.434V148.559H199.948V94.957Z" fill="#F0F0F0"/>
<path d="M198.31 148.559H104.512V151.148H198.31V148.559Z" fill="#F0F0F0"/>
<path d="M191.429 94.9609H102.879V148.563H191.429V94.9609Z" fill="#F5F5F5"/>
<path d="M199.948 92.6992H191.434V94.9611H199.948V92.6992Z" fill="#E6E6E6"/>
<path d="M191.429 92.6992H102.879V94.9611H191.429V92.6992Z" fill="#F0F0F0"/>
<path d="M188.373 113.694H105.941V99.7305H188.373V113.694ZM106.493 113.117H187.798V100.28H106.512L106.493 113.117Z" fill="#E0E0E0"/>
<path d="M188.373 143.815H105.941V117.125H188.373V143.815ZM106.493 143.243H187.798V117.711H106.512L106.493 143.243Z" fill="#E0E0E0"/>
<path d="M177.265 100H117.047V101.837H177.265V100Z" fill="#E0E0E0"/>
<path d="M177.265 117.41H117.047V119.247H177.265V117.41Z" fill="#E0E0E0"/>
<path d="M167.998 91.7227H135.273V92.7013H167.998V91.7227Z" fill="#E0E0E0"/>
<path d="M167.998 91.7232H135.273L138.42 72.9219H171.144L167.998 91.7232Z" fill="#E0E0E0"/>
<path d="M167.388 91.7232H134.664L137.81 72.9219H170.535L167.388 91.7232Z" fill="#EBEBEB"/>
<path d="M135.906 90.2466L138.583 74.2611C138.598 74.1624 138.649 74.0727 138.725 74.0083C138.801 73.9438 138.897 73.909 138.997 73.9103H168.897C168.951 73.909 169.006 73.9187 169.056 73.9388C169.107 73.9589 169.153 73.989 169.192 74.0273C169.231 74.0655 169.262 74.1113 169.283 74.1617C169.305 74.2122 169.315 74.2664 169.315 74.3211C169.32 74.3471 169.32 74.3736 169.315 74.3996L166.638 90.3851C166.623 90.4837 166.572 90.5735 166.496 90.6379C166.42 90.7023 166.324 90.7371 166.224 90.7359H136.324C136.27 90.7371 136.216 90.7274 136.165 90.7073C136.114 90.6872 136.068 90.6572 136.029 90.6189C135.99 90.5806 135.959 90.5349 135.938 90.4845C135.917 90.434 135.906 90.3798 135.906 90.3251C135.901 90.2991 135.901 90.2726 135.906 90.2466Z" fill="#FAFAFA"/>
<path d="M160.592 91.7227H127.867V92.7013H160.592V91.7227Z" fill="#F0F0F0"/>
<path d="M77.7728 86.75H60.2606C56.3138 86.75 52.7534 90.1798 51.8242 94.8789L48.894 109.65H42.8818C40.016 109.65 37.5504 112.111 37.0122 115.517L36.2118 120.595C35.002 120.803 33.9624 121.92 33.668 123.402H69.824C73.7662 123.402 77.322 119.977 78.2512 115.282L82.4556 94.048C83.1962 90.2259 80.9606 86.75 77.7728 86.75ZM42.2378 120.503H37.7896L38.5348 115.864C38.935 113.357 40.7566 111.534 42.868 111.534H48.5122L47.8406 115.139C47.2012 118.246 44.846 120.503 42.2378 120.503Z" fill="#E6E6E6"/>
<path d="M69.0625 123.359H70.3321L72.7379 151.153H71.4683L69.0625 123.359Z" fill="#E0E0E0"/>
<path d="M64.3008 123.359H65.5704L67.9762 151.153H66.7066L64.3008 123.359Z" fill="#E0E0E0"/>
<path d="M39.1793 123.359H37.9097L35.5039 151.153H36.7735L39.1793 123.359Z" fill="#E0E0E0"/>
<path d="M43.9449 123.359H42.6753L40.2695 151.153H41.5391L43.9449 123.359Z" fill="#E0E0E0"/>
<path d="M115.002 172.002C164.26 172.002 204.191 169.662 204.191 166.776C204.191 163.89 164.26 161.551 115.002 161.551C65.744 161.551 25.8125 163.89 25.8125 166.776C25.8125 169.662 65.744 172.002 115.002 172.002Z" fill="#F5F5F5"/>
<path d="M169.975 10.8711H60.0257C56.5986 10.8711 53.8203 13.6591 53.8203 17.0982V59.3169C53.8203 62.7561 56.5986 65.544 60.0257 65.544H169.975C173.402 65.544 176.18 62.7561 176.18 59.3169V17.0982C176.18 13.6591 173.402 10.8711 169.975 10.8711Z" fill="#407BFF"/>
<path opacity="0.6" d="M169.975 10.8711H60.0257C56.5986 10.8711 53.8203 13.6591 53.8203 17.0982V59.3169C53.8203 62.7561 56.5986 65.544 60.0257 65.544H169.975C173.402 65.544 176.18 62.7561 176.18 59.3169V17.0982C176.18 13.6591 173.402 10.8711 169.975 10.8711Z" fill="white"/>
<path opacity="0.9" d="M169.974 12.2578H60.0246C57.3596 12.2578 55.1992 14.4258 55.1992 17.1001V59.3188C55.1992 61.9931 57.3596 64.1611 60.0246 64.1611H169.974C172.639 64.1611 174.799 61.9931 174.799 59.3188V17.1001C174.799 14.4258 172.639 12.2578 169.974 12.2578Z" fill="white"/>
<path d="M104.074 34.1814V30.8763H105.339C105.507 30.871 105.675 30.8818 105.841 30.9086C105.984 30.9315 106.122 30.9834 106.245 31.061C106.359 31.1424 106.449 31.2522 106.508 31.3795C106.578 31.5229 106.613 31.6813 106.609 31.8411C106.615 32.1052 106.52 32.3615 106.342 32.5566C106.209 32.6675 106.054 32.7505 105.888 32.8004C105.723 32.8504 105.548 32.8664 105.376 32.8474H104.53V34.1814H104.074ZM104.507 32.4458H105.339C105.552 32.4653 105.765 32.4098 105.942 32.2888C106.003 32.2297 106.051 32.1576 106.081 32.0778C106.111 31.9979 106.123 31.9124 106.117 31.8272C106.12 31.7011 106.085 31.577 106.015 31.4718C105.949 31.3766 105.851 31.308 105.739 31.2779C105.605 31.251 105.467 31.2401 105.33 31.2456H104.488L104.507 32.4458Z" fill="#263238"/>
<path d="M107.082 34.1809V31.7852H107.45V32.1498C107.51 32.021 107.596 31.9062 107.703 31.8128C107.781 31.7621 107.872 31.7349 107.965 31.7344C108.113 31.7374 108.256 31.7822 108.379 31.8636L108.241 32.2375C108.151 32.1835 108.048 32.1533 107.942 32.1498C107.857 32.1486 107.773 32.178 107.708 32.2329C107.634 32.2876 107.58 32.3656 107.556 32.4545C107.51 32.604 107.487 32.7596 107.487 32.9161V34.1809H107.082Z" fill="#263238"/>
<path d="M108.474 32.9899C108.457 32.8081 108.482 32.6249 108.546 32.4539C108.609 32.2829 108.71 32.1285 108.842 32.002C109.051 31.8248 109.318 31.7311 109.591 31.7389C109.741 31.7338 109.889 31.7599 110.028 31.8155C110.166 31.8712 110.292 31.9551 110.396 32.062C110.614 32.3058 110.727 32.6261 110.709 32.9529C110.719 33.2034 110.672 33.4528 110.571 33.6823C110.477 33.8544 110.337 33.9967 110.166 34.0931C109.99 34.1904 109.792 34.2413 109.591 34.2408C109.442 34.246 109.292 34.22 109.153 34.1643C109.014 34.1087 108.887 34.0248 108.782 33.9177C108.562 33.6611 108.451 33.3278 108.474 32.9899ZM108.888 32.9899C108.869 33.2355 108.939 33.4797 109.085 33.6777C109.148 33.7503 109.226 33.8082 109.313 33.8472C109.401 33.8863 109.496 33.9057 109.591 33.9038C109.687 33.9064 109.782 33.8869 109.869 33.8469C109.956 33.8069 110.032 33.7474 110.093 33.673C110.24 33.4721 110.31 33.2247 110.291 32.976C110.308 32.734 110.236 32.494 110.088 32.3021C110.028 32.2286 109.952 32.1697 109.866 32.1297C109.78 32.0897 109.686 32.0698 109.591 32.0713C109.495 32.0707 109.401 32.091 109.313 32.1308C109.226 32.1707 109.148 32.2291 109.085 32.3021C108.937 32.4989 108.866 32.7439 108.888 32.9899Z" fill="#263238"/>
<path d="M111.106 34.3857L111.502 34.4411C111.504 34.493 111.517 34.5439 111.541 34.5901C111.565 34.6363 111.599 34.6768 111.64 34.7088C111.759 34.7927 111.903 34.8334 112.049 34.8242C112.202 34.8326 112.353 34.7922 112.481 34.7088C112.583 34.6301 112.656 34.5197 112.688 34.3949C112.718 34.2227 112.728 34.0478 112.721 33.8733C112.64 33.9715 112.539 34.0507 112.425 34.105C112.31 34.1592 112.185 34.1873 112.058 34.1872C111.912 34.1932 111.766 34.164 111.633 34.1022C111.501 34.0404 111.384 33.9477 111.295 33.8317C111.114 33.5846 111.02 33.2842 111.028 32.9778C111.025 32.7606 111.067 32.5452 111.152 32.3454C111.224 32.1593 111.348 31.9987 111.511 31.8837C111.673 31.7772 111.864 31.7225 112.058 31.7268C112.193 31.7239 112.327 31.7534 112.449 31.8128C112.571 31.8722 112.676 31.9598 112.757 32.0684V31.7776H113.13V33.8502C113.147 34.1185 113.108 34.3874 113.015 34.6395C112.937 34.7972 112.811 34.9263 112.656 35.0088C112.471 35.1058 112.263 35.152 112.054 35.1427C111.81 35.1529 111.568 35.0868 111.364 34.9534C111.277 34.8874 111.209 34.8011 111.164 34.702C111.119 34.603 111.099 34.4943 111.106 34.3857ZM111.442 32.9454C111.422 33.1898 111.489 33.4333 111.63 33.6332C111.686 33.7013 111.757 33.7561 111.836 33.7936C111.916 33.8312 112.002 33.8505 112.09 33.8502C112.178 33.8508 112.265 33.8316 112.345 33.7941C112.425 33.7565 112.495 33.7016 112.55 33.6332C112.692 33.4387 112.759 33.1994 112.739 32.9593C112.757 32.723 112.688 32.4881 112.546 32.2992C112.491 32.2291 112.421 32.1725 112.342 32.1335C112.262 32.0946 112.174 32.0743 112.086 32.0743C111.997 32.0743 111.91 32.0946 111.83 32.1335C111.75 32.1725 111.68 32.2291 111.626 32.2992C111.49 32.4857 111.424 32.7149 111.442 32.9454Z" fill="#263238"/>
<path d="M113.734 34.1809V31.7852H114.079V32.1498C114.139 32.0198 114.227 31.9047 114.337 31.8128C114.413 31.7615 114.503 31.7342 114.595 31.7344C114.742 31.7353 114.886 31.7803 115.009 31.8636L114.871 32.2375C114.782 32.1829 114.68 32.1526 114.576 32.1498C114.489 32.149 114.405 32.1784 114.337 32.2329C114.266 32.29 114.213 32.3671 114.185 32.4545C114.143 32.6048 114.122 32.76 114.121 32.9161V34.1809H113.734Z" fill="#263238"/>
<path d="M116.903 33.4152L117.322 33.466C117.267 33.693 117.137 33.8948 116.954 34.0384C116.724 34.1901 116.45 34.2603 116.176 34.2377C115.901 34.2151 115.642 34.1011 115.44 33.9138C115.331 33.7878 115.247 33.6414 115.194 33.483C115.142 33.3246 115.12 33.1572 115.132 32.9906C115.116 32.6541 115.227 32.324 115.445 32.0673C115.548 31.9578 115.673 31.8715 115.812 31.8142C115.95 31.7569 116.1 31.7299 116.25 31.735C116.396 31.73 116.541 31.7562 116.676 31.8119C116.81 31.8676 116.932 31.9516 117.032 32.0581C117.243 32.3177 117.349 32.6469 117.331 32.9813V33.0875H115.551C115.551 33.3097 115.631 33.5244 115.776 33.6922C115.839 33.7603 115.916 33.814 116.002 33.8498C116.088 33.8856 116.18 33.9027 116.273 33.8999C116.409 33.9043 116.543 33.8638 116.655 33.7845C116.77 33.6871 116.856 33.5592 116.903 33.4152ZM115.574 32.7736H116.908C116.907 32.6067 116.852 32.4445 116.751 32.312C116.692 32.2369 116.617 32.1765 116.53 32.1357C116.444 32.0948 116.35 32.0746 116.254 32.0766C116.169 32.0753 116.085 32.091 116.006 32.1227C115.927 32.1544 115.855 32.2015 115.794 32.2612C115.656 32.3962 115.577 32.5803 115.574 32.7736Z" fill="#263238"/>
<path d="M117.668 33.4726L118.068 33.4079C118.081 33.5498 118.147 33.6817 118.252 33.7772C118.379 33.8566 118.526 33.8987 118.675 33.8987C118.825 33.8987 118.972 33.8566 119.099 33.7772C119.139 33.7452 119.172 33.7046 119.195 33.6584C119.218 33.6121 119.231 33.5612 119.232 33.5095C119.232 33.4662 119.221 33.4236 119.2 33.3857C119.179 33.3478 119.149 33.3157 119.112 33.2925C118.981 33.2285 118.842 33.182 118.698 33.1541C118.487 33.1084 118.281 33.0435 118.082 32.9602C117.975 32.9138 117.884 32.8347 117.824 32.734C117.764 32.6371 117.732 32.5251 117.732 32.4109C117.733 32.3085 117.758 32.2077 117.805 32.117C117.852 32.0262 117.92 31.9482 118.004 31.8892C118.083 31.8355 118.17 31.7949 118.261 31.7692C118.375 31.7377 118.493 31.7222 118.611 31.7231C118.78 31.719 118.948 31.7456 119.108 31.8015C119.231 31.8441 119.339 31.9209 119.421 32.0231C119.494 32.1341 119.541 32.2604 119.559 32.3924L119.163 32.4478C119.148 32.3348 119.093 32.2312 119.007 32.157C118.901 32.0824 118.772 32.0466 118.643 32.0554C118.504 32.0461 118.364 32.0783 118.243 32.1477C118.208 32.1721 118.178 32.2044 118.158 32.242C118.137 32.2797 118.125 32.3217 118.123 32.3647C118.123 32.4154 118.141 32.4646 118.174 32.5032C118.213 32.5554 118.268 32.5941 118.33 32.614C118.372 32.614 118.487 32.6647 118.685 32.7155C118.889 32.7674 119.09 32.8306 119.287 32.9048C119.392 32.9502 119.483 33.0236 119.549 33.1171C119.616 33.22 119.649 33.3408 119.646 33.4633C119.645 33.5995 119.605 33.7326 119.531 33.8465C119.448 33.9711 119.329 34.0677 119.191 34.1234C119.031 34.1916 118.858 34.2261 118.685 34.225C118.433 34.2434 118.183 34.175 117.976 34.0311C117.811 33.8876 117.701 33.6896 117.668 33.4726Z" fill="#263238"/>
<path d="M119.969 33.4726L120.369 33.4079C120.382 33.5498 120.448 33.6817 120.553 33.7772C120.68 33.8566 120.827 33.8987 120.976 33.8987C121.126 33.8987 121.272 33.8566 121.399 33.7772C121.44 33.7452 121.473 33.7046 121.496 33.6584C121.519 33.6121 121.532 33.5612 121.533 33.5095C121.533 33.4662 121.521 33.4236 121.501 33.3857C121.48 33.3478 121.45 33.3157 121.413 33.2925C121.282 33.2285 121.143 33.182 120.999 33.1541C120.788 33.1084 120.582 33.0435 120.383 32.9602C120.275 32.9138 120.185 32.8347 120.125 32.734C120.065 32.6371 120.033 32.5251 120.033 32.4109C120.034 32.3085 120.059 32.2077 120.106 32.117C120.153 32.0262 120.221 31.9482 120.305 31.8892C120.383 31.8355 120.47 31.7949 120.562 31.7692C120.676 31.7377 120.794 31.7222 120.912 31.7231C121.081 31.719 121.249 31.7456 121.409 31.8015C121.532 31.8441 121.64 31.9209 121.721 32.0231C121.795 32.1341 121.842 32.2604 121.859 32.3924L121.464 32.4478C121.449 32.3348 121.393 32.2312 121.307 32.157C121.201 32.0824 121.073 32.0466 120.944 32.0554C120.804 32.0461 120.665 32.0783 120.544 32.1477C120.508 32.1721 120.479 32.2044 120.458 32.242C120.438 32.2797 120.426 32.3217 120.424 32.3647C120.424 32.4154 120.442 32.4646 120.475 32.5032C120.514 32.5554 120.569 32.5941 120.631 32.614C120.673 32.614 120.788 32.6647 120.985 32.7155C121.19 32.7674 121.391 32.8306 121.588 32.9048C121.693 32.9502 121.784 33.0236 121.85 33.1171C121.917 33.22 121.95 33.3408 121.947 33.4633C121.946 33.5995 121.906 33.7326 121.832 33.8465C121.749 33.9711 121.63 34.0677 121.491 34.1234C121.331 34.1916 121.159 34.2261 120.985 34.225C120.734 34.2434 120.484 34.175 120.277 34.0311C120.111 33.8876 120.002 33.6896 119.969 33.4726Z" fill="#263238"/>
<path d="M122.543 34.1843V33.7227H123.003V34.1843H122.543Z" fill="#263238"/>
<path d="M123.824 34.1843V33.7227H124.284V34.1843H123.824Z" fill="#263238"/>
<path d="M125.121 34.1843V33.7227H125.581V34.1843H125.121Z" fill="#263238"/>
<path opacity="0.7" d="M169.974 12.2578H60.0338C58.7524 12.2578 57.5234 12.7683 56.6169 13.6772C55.7103 14.586 55.2004 15.8188 55.1992 17.1047V22.2932H174.799V17.1047C174.797 15.8208 174.288 14.5901 173.383 13.6818C172.479 12.7734 171.253 12.2615 169.974 12.2578Z" fill="#407BFF"/>
<path d="M64.7811 17.2736C64.7811 16.9267 64.6786 16.5876 64.4866 16.2991C64.2945 16.0107 64.0215 15.7858 63.7021 15.6531C63.3827 15.5203 63.0312 15.4856 62.6921 15.5532C62.3531 15.6209 62.0416 15.788 61.7971 16.0333C61.5527 16.2786 61.3862 16.5912 61.3187 16.9314C61.2513 17.2717 61.2859 17.6244 61.4182 17.9449C61.5505 18.2654 61.7746 18.5394 62.062 18.7321C62.3495 18.9249 62.6874 19.0278 63.0332 19.0278C63.4967 19.0278 63.9414 18.843 64.2692 18.514C64.597 18.185 64.7811 17.7389 64.7811 17.2736Z" fill="white"/>
<path d="M71.6835 17.2736C71.6835 16.9267 71.581 16.5876 71.3889 16.2991C71.1968 16.0107 70.9238 15.7858 70.6044 15.6531C70.285 15.5203 69.9336 15.4856 69.5945 15.5532C69.2554 15.6209 68.9439 15.788 68.6995 16.0333C68.455 16.2786 68.2885 16.5912 68.2211 16.9314C68.1536 17.2717 68.1883 17.6244 68.3206 17.9449C68.4529 18.2654 68.6769 18.5394 68.9644 18.7321C69.2518 18.9249 69.5898 19.0278 69.9355 19.0278C70.3991 19.0278 70.8437 18.843 71.1715 18.514C71.4993 18.185 71.6835 17.7389 71.6835 17.2736Z" fill="white"/>
<path d="M78.5819 17.2736C78.5819 16.9267 78.4794 16.5876 78.2873 16.2991C78.0953 16.0107 77.8223 15.7858 77.5029 15.6531C77.1835 15.5203 76.832 15.4856 76.4929 15.5532C76.1538 15.6209 75.8424 15.788 75.5979 16.0333C75.3535 16.2786 75.187 16.5912 75.1195 16.9314C75.0521 17.2717 75.0867 17.6244 75.219 17.9449C75.3513 18.2654 75.5753 18.5394 75.8628 18.7321C76.1503 18.9249 76.4882 19.0278 76.8339 19.0278C77.2975 19.0278 77.7421 18.843 78.07 18.514C78.3978 18.185 78.5819 17.7389 78.5819 17.2736Z" fill="white"/>
<path opacity="0.1" d="M166.678 44.9564H63.3248C62.9193 44.9564 62.5304 44.7951 62.2432 44.5078C61.9561 44.2206 61.7942 43.8308 61.793 43.4239C61.7942 43.0166 61.956 42.6263 62.243 42.3383C62.53 42.0503 62.9189 41.8879 63.3248 41.8867H166.678C167.083 41.8879 167.472 42.0503 167.759 42.3383C168.046 42.6263 168.208 43.0166 168.209 43.4239C168.208 43.8308 168.046 44.2206 167.759 44.5078C167.472 44.7951 167.083 44.9564 166.678 44.9564Z" fill="#407BFF"/>
<path d="M140.076 44.9564H63.3248C62.9193 44.9564 62.5304 44.7951 62.2432 44.5078C61.9561 44.2206 61.7942 43.8308 61.793 43.4239C61.7942 43.0166 61.956 42.6263 62.243 42.3383C62.53 42.0503 62.9189 41.8879 63.3248 41.8867H140.076C140.481 41.8879 140.87 42.0504 141.156 42.3386C141.442 42.6267 141.603 43.017 141.603 43.4239C141.603 43.8303 141.442 44.2201 141.156 44.5076C140.869 44.795 140.481 44.9564 140.076 44.9564Z" fill="#407BFF"/>
<path d="M147.66 51.8287H143.741L141.615 49.6914L139.49 51.8287H135.562C135.117 51.8311 134.692 52.0094 134.377 52.3248C134.063 52.6403 133.885 53.0674 133.883 53.5135V58.3973C133.885 58.8435 134.063 59.2706 134.377 59.586C134.692 59.9015 135.117 60.0798 135.562 60.0822H147.66C148.104 60.0798 148.53 59.9015 148.844 59.586C149.159 59.2706 149.336 58.8435 149.339 58.3973V53.5135C149.336 53.0674 149.159 52.6403 148.844 52.3248C148.53 52.0094 148.104 51.8311 147.66 51.8287Z" fill="#263238"/>
<path d="M140.117 55.2265C140.117 55.1037 140.144 54.9825 140.195 54.8711C140.251 54.762 140.337 54.672 140.444 54.6126C140.566 54.55 140.702 54.5183 140.839 54.5202C140.936 54.5156 141.033 54.5304 141.123 54.5637C141.214 54.597 141.298 54.6481 141.368 54.7141C141.493 54.8557 141.561 55.0379 141.561 55.2265C141.561 55.4151 141.493 55.5973 141.368 55.7389C141.298 55.8049 141.214 55.856 141.123 55.8893C141.033 55.9226 140.936 55.9374 140.839 55.9328C140.702 55.9347 140.566 55.903 140.444 55.8404C140.337 55.781 140.251 55.691 140.195 55.5819C140.144 55.4705 140.117 55.3493 140.117 55.2265ZM140.628 55.2265C140.619 55.3407 140.645 55.4548 140.701 55.5542C140.715 55.5728 140.732 55.5885 140.752 55.6003C140.772 55.612 140.794 55.6196 140.816 55.6226C140.839 55.6257 140.862 55.624 140.884 55.6178C140.907 55.6116 140.927 55.601 140.945 55.5866C140.957 55.577 140.968 55.5661 140.977 55.5542C141.031 55.4538 141.057 55.3405 141.051 55.2265C141.059 55.1109 141.034 54.9954 140.977 54.8941C140.961 54.877 140.941 54.8633 140.92 54.8539C140.898 54.8446 140.875 54.8398 140.851 54.8398C140.827 54.8398 140.804 54.8446 140.782 54.8539C140.76 54.8633 140.741 54.877 140.724 54.8941C140.724 54.8941 140.724 54.8941 140.701 54.8941C140.643 54.9963 140.617 55.1139 140.628 55.2311V55.2265ZM142.385 54.5156H142.771L141.221 57.3868H140.839L142.385 54.5156ZM142.045 56.6713C142.053 56.555 142.086 56.4418 142.141 56.339C142.196 56.2299 142.283 56.1399 142.39 56.0805C142.511 56.0159 142.648 55.9841 142.785 55.9882C142.882 55.9835 142.978 55.9983 143.069 56.0316C143.16 56.0649 143.243 56.116 143.314 56.182C143.438 56.3236 143.507 56.5058 143.507 56.6944C143.507 56.883 143.438 57.0652 143.314 57.2068C143.243 57.2728 143.16 57.324 143.069 57.3572C142.978 57.3905 142.882 57.4053 142.785 57.4007C142.648 57.4054 142.511 57.3736 142.39 57.3084C142.28 57.2531 142.192 57.1619 142.141 57.0499C142.082 56.9339 142.049 56.8062 142.045 56.676V56.6713ZM142.555 56.6713C142.547 56.7855 142.573 56.8995 142.629 56.9991C142.642 57.0174 142.659 57.0328 142.678 57.0446C142.697 57.0564 142.718 57.0642 142.741 57.0676C142.763 57.0711 142.786 57.07 142.808 57.0646C142.829 57.0592 142.85 57.0495 142.868 57.036C142.882 57.0262 142.895 57.0136 142.905 56.9991C142.963 56.9005 142.989 56.7857 142.978 56.6713C142.989 56.5556 142.963 56.4394 142.905 56.339C142.888 56.3182 142.867 56.3015 142.843 56.2903C142.819 56.2791 142.793 56.2736 142.767 56.2744C142.74 56.2725 142.713 56.2779 142.688 56.2901C142.664 56.3022 142.644 56.3207 142.629 56.3436C142.571 56.4458 142.545 56.5633 142.555 56.6806V56.6713Z" fill="white"/>
<path opacity="0.1" d="M114.858 61.747L115.318 59.8037C115.342 59.7309 115.351 59.6542 115.345 59.5779C115.339 59.5016 115.318 59.4273 115.283 59.3591C115.249 59.2909 115.201 59.2303 115.143 59.1806C115.085 59.1309 115.018 59.0933 114.945 59.0697C114.88 59.0466 114.812 59.0372 114.743 59.042H107.746C106.601 52.7272 102.53 48.088 103.703 40.4161C106.003 36.7879 97.7229 23.3043 91.7106 31.4101C83.9228 31.9225 91.1264 46.5832 76.3099 50.3361C65.4124 53.1057 59.4371 59.439 57.0312 64.766C57.9468 65.278 58.9777 65.5466 60.0259 65.5461H60.3018C61.2392 63.4478 62.5187 61.5211 64.0877 59.8452C63.2722 61.7009 62.5702 63.6047 61.9854 65.5461H115.534L115.667 62.5364C115.676 62.4411 115.666 62.3451 115.638 62.2537C115.61 62.1624 115.564 62.0776 115.502 62.0042C115.441 61.9309 115.366 61.8703 115.282 61.8262C115.197 61.7821 115.105 61.7552 115.01 61.747C114.959 61.7424 114.908 61.7424 114.858 61.747Z" fill="#407BFF"/>
<path d="M98.6989 64.4759C97.7789 71.4923 96.7393 85.3313 77.5987 86.7023C64.9579 87.6025 59.4149 75.5452 51.4569 71.6123C52.1607 65.8514 54.7965 60.0721 54.8885 59.8413C52.0929 62.8867 50.1919 66.6493 49.3961 70.7122C48.4748 70.3668 47.5272 70.0967 46.5625 69.9044C46.5625 64.4759 52.2895 54.0804 67.1107 50.3322C81.9319 46.5839 74.7237 31.9232 82.5115 31.4062C88.5329 23.3004 96.8037 36.784 94.5037 40.4122C93.0225 50.1106 99.9179 54.9529 98.6989 64.4759Z" fill="#263238"/>
<path d="M105.927 64.7441C105.89 64.4982 105.789 64.2667 105.632 64.0738C105.476 63.8809 105.271 63.7338 105.039 63.6479C104.806 63.562 104.555 63.5404 104.311 63.5854C104.068 63.6305 103.841 63.7405 103.654 63.9039L101.354 65.8611C101.223 66.0353 101.134 66.2381 101.096 66.4531C101.057 66.6681 101.07 66.8892 101.133 67.0983L101.543 68.4415C102.621 68.5106 103.702 68.3534 104.717 67.9799C105.183 67.823 105.578 67.5044 105.831 67.0813C106.084 66.6582 106.178 66.1585 106.097 65.6719L105.927 64.7441Z" fill="#FFB573"/>
<path d="M92.9197 56.6716C93.0117 57.1794 93.1359 57.8026 93.2555 58.3796C93.3751 58.9566 93.5085 59.5475 93.6465 60.1291C93.9225 61.297 94.2399 62.4371 94.5665 63.5912C94.8931 64.7452 95.3071 65.8253 95.7303 66.9055C96.1623 67.9434 96.6586 68.9532 97.2161 69.929L96.0293 68.9827C96.2748 69.1402 96.5703 69.1995 96.8573 69.1489C97.3936 69.067 97.9099 68.8854 98.3799 68.6135C98.9824 68.2906 99.5564 67.9169 100.096 67.4964C100.661 67.0717 101.246 66.5731 101.761 66.1115L101.871 66.0192C102.111 65.8129 102.414 65.6953 102.729 65.6859C103.045 65.6766 103.354 65.776 103.605 65.9677C103.856 66.1594 104.035 66.4317 104.11 66.7393C104.185 67.0469 104.153 67.3711 104.019 67.6579C103.636 68.4706 103.173 69.2437 102.639 69.966C102.101 70.7115 101.484 71.397 100.799 72.0109C100.012 72.7209 99.0951 73.2711 98.0993 73.6311C97.5079 73.8428 96.8869 73.9596 96.2593 73.9774C95.5788 73.9949 94.9004 73.8949 94.2537 73.6819C93.8149 73.5363 93.4344 73.2531 93.1681 72.8741L93.0669 72.7356C92.2567 71.5825 91.5399 70.3661 90.9233 69.0982C90.3344 67.8694 89.8138 66.6088 89.3639 65.3222C88.9194 64.0574 88.5387 62.771 88.2231 61.4678C88.0667 60.8215 87.9149 60.1706 87.7631 59.5151C87.6113 58.8597 87.5239 58.2226 87.4227 57.4841C87.3362 56.7729 87.5277 56.0557 87.957 55.4832C88.3864 54.9107 89.0201 54.5274 89.725 54.4139C90.43 54.3004 91.1514 54.4654 91.7377 54.8744C92.3239 55.2833 92.7295 55.9044 92.8691 56.607L92.9197 56.6716Z" fill="#FFB573"/>
<path d="M60.8699 153.433C60.1569 150.202 60.3363 149.44 59.7567 147.663C59.4526 146.657 59.0164 145.696 58.4595 144.806C57.9535 143.883 58.9195 143.112 59.8763 142.987C60.6261 142.895 61.4173 142.863 62.3373 142.715L64.3245 146.435C63.2757 147.769 62.4385 151.051 62.8111 153.535C63.0687 155.326 61.1551 154.731 60.8699 153.433Z" fill="#407BFF"/>
<path d="M92.9228 76.4492C92.9228 76.4492 93.4472 103.809 94.0038 118.968C95.4666 127.937 64.7294 146.614 64.7294 146.614C64.0716 146.928 62.3282 143.507 62.3558 142.713C62.3558 142.713 75.5762 123.173 83.4514 118.456C74.7114 94.2442 77.1034 76.4492 77.1034 76.4492H92.9228Z" fill="#263238"/>
<path opacity="0.2" d="M77.0824 76.4492H87.0598C87.0598 76.4492 85.0634 103.195 82.8416 116.775C74.8238 93.4272 77.0824 76.4492 77.0824 76.4492Z" fill="black"/>
<path opacity="0.2" d="M70.9137 131.117C74.6995 126.376 79.0787 121.423 82.5977 119.004C82.0963 123.694 81.5811 129.353 81.1855 135.16C77.8781 137.787 74.4465 140.238 71.5761 142.181C71.1003 138.513 70.879 134.816 70.9137 131.117Z" fill="black"/>
<path d="M66.6374 145.941C66.2372 146.227 65.5242 146.749 65.009 147.151C64.969 147.183 64.923 147.207 64.8737 147.221C64.8244 147.235 64.7728 147.239 64.7218 147.233C64.6709 147.227 64.6216 147.211 64.5769 147.186C64.5323 147.161 64.4931 147.127 64.4616 147.086C63.4734 145.722 62.6126 144.269 61.8902 142.747C61.8521 142.672 61.8391 142.586 61.8532 142.503C61.8673 142.42 61.9077 142.344 61.9684 142.285L63.2564 141.002C63.3313 140.928 63.432 140.887 63.537 140.887C63.642 140.887 63.7428 140.928 63.8176 141.002L63.859 141.053L66.734 145.383C66.7647 145.425 66.7866 145.474 66.7984 145.526C66.8102 145.577 66.8116 145.63 66.8026 145.682C66.7936 145.734 66.7744 145.784 66.746 145.828C66.7176 145.873 66.6807 145.911 66.6374 145.941Z" fill="#407BFF"/>
<path opacity="0.3" d="M66.6374 145.941C66.2372 146.227 65.5242 146.749 65.009 147.151C64.969 147.183 64.923 147.207 64.8737 147.221C64.8244 147.235 64.7728 147.239 64.7218 147.233C64.6709 147.227 64.6216 147.211 64.5769 147.186C64.5323 147.161 64.4931 147.127 64.4616 147.086C63.4734 145.722 62.6126 144.269 61.8902 142.747C61.8521 142.672 61.8391 142.586 61.8532 142.503C61.8673 142.42 61.9077 142.344 61.9684 142.285L63.2564 141.002C63.3313 140.928 63.432 140.887 63.537 140.887C63.642 140.887 63.7428 140.928 63.8176 141.002L63.859 141.053L66.734 145.383C66.7647 145.425 66.7866 145.474 66.7984 145.526C66.8102 145.577 66.8116 145.63 66.8026 145.682C66.7936 145.734 66.7744 145.784 66.746 145.828C66.7176 145.873 66.6807 145.911 66.6374 145.941Z" fill="white"/>
<path d="M81.4535 169.082C78.0955 169.082 78.3301 169.032 76.4349 168.967C74.8157 168.907 74.4431 169.11 73.1413 169.082C72.0557 169.059 72.0005 168.016 72.2213 166.816C72.3363 166.211 72.5295 165.477 72.6813 164.508H77.7873C78.2517 165.225 78.8698 165.828 79.5964 166.275C80.323 166.721 81.1397 166.999 81.9871 167.088C83.8133 167.324 82.8013 169.082 81.4535 169.082Z" fill="#407BFF"/>
<path d="M88.156 76.4492C88.156 76.4492 82.8752 105.623 80.9386 118.848C78.91 132.733 76.403 155.274 77.783 164.501C77.0378 164.963 74.2686 164.986 72.677 164.501C72.677 164.501 64.604 132.83 71.3476 119.462C67.5112 86.96 73.1876 85.2706 74.7516 76.4492H88.156Z" fill="#263238"/>
<path d="M77.9928 162.575C78.063 163.216 78.1799 163.85 78.3424 164.473C78.3587 164.519 78.3654 164.568 78.362 164.616C78.3587 164.665 78.3454 164.712 78.3229 164.756C78.3005 164.799 78.2694 164.837 78.2316 164.868C78.1938 164.899 78.1501 164.921 78.1032 164.934C78.0864 164.937 78.0694 164.937 78.0526 164.934C76.2126 165.234 73.4526 164.8 72.5924 164.643C72.5112 164.626 72.4362 164.587 72.3755 164.53C72.3147 164.473 72.2705 164.4 72.2474 164.32L71.8104 162.543C71.7939 162.498 71.7869 162.449 71.7896 162.401C71.7924 162.353 71.8049 162.306 71.8265 162.263C71.848 162.219 71.878 162.181 71.9148 162.15C71.9516 162.119 71.9943 162.096 72.0404 162.082C72.0817 162.077 72.1233 162.077 72.1646 162.082L77.5742 162.183C77.6779 162.191 77.7758 162.235 77.8518 162.306C77.9278 162.377 77.9775 162.472 77.9928 162.575Z" fill="#407BFF"/>
<path opacity="0.3" d="M77.9928 162.575C78.063 163.216 78.1799 163.85 78.3424 164.473C78.3587 164.519 78.3654 164.568 78.362 164.616C78.3587 164.665 78.3454 164.712 78.3229 164.756C78.3005 164.799 78.2694 164.837 78.2316 164.868C78.1938 164.899 78.1501 164.921 78.1032 164.934C78.0864 164.937 78.0694 164.937 78.0526 164.934C76.2126 165.234 73.4526 164.8 72.5924 164.643C72.5112 164.626 72.4362 164.587 72.3755 164.53C72.3147 164.473 72.2705 164.4 72.2474 164.32L71.8104 162.543C71.7939 162.498 71.7869 162.449 71.7896 162.401C71.7924 162.353 71.8049 162.306 71.8265 162.263C71.848 162.219 71.878 162.181 71.9148 162.15C71.9516 162.119 71.9943 162.096 72.0404 162.082C72.0817 162.077 72.1233 162.077 72.1646 162.082L77.5742 162.183C77.6779 162.191 77.7758 162.235 77.8518 162.306C77.9278 162.377 77.9775 162.472 77.9928 162.575Z" fill="white"/>
<path d="M88.6214 50.8945C91.9702 51.5269 92.6786 52.9025 95.1442 58.0033C94.399 61.3638 90.397 64.3135 90.397 64.3135C90.397 64.3135 83.0968 55.2336 88.6214 50.8945Z" fill="white"/>
<path d="M74.752 76.4521C71.6102 80.7543 68.1878 87.6276 68.1602 102.399C84.4902 109.785 92.2596 109.785 96.142 107.938C93.3406 96.5459 92.922 76.4521 92.922 76.4521C90.3138 73.5716 74.752 76.4521 74.752 76.4521Z" fill="#407BFF"/>
<path opacity="0.2" d="M85.765 89.4219C84.3344 94.7304 85.8018 100.039 87.0622 101.216C86.1974 98.1509 85.765 89.4219 85.765 89.4219Z" fill="black"/>
<path d="M93.928 57.2594C93.9832 59.0505 93.8084 61.2154 93.4082 65.4807C93.1368 69.0905 94.0338 75.9546 92.9022 76.4578C90.041 77.261 82.5292 76.8917 74.7506 76.4578C74.3872 71.2877 74.5206 67.7241 71.2638 56.1839C70.9156 55.1145 71.0049 53.9501 71.5121 52.9468C72.0194 51.9434 72.903 51.1834 73.9686 50.8339C74.2672 50.7362 74.5758 50.6727 74.8886 50.6446C75.6108 50.5707 76.3744 50.5061 77.1564 50.4692C79.8991 50.2707 82.6524 50.2707 85.395 50.4692C86.292 50.5523 87.235 50.6631 88.109 50.7877C89.6765 51.0217 91.1141 51.7952 92.1756 52.9759C93.2372 54.1565 93.8567 55.6708 93.928 57.2594Z" fill="white"/>
<path d="M80.0725 42.4648C80.5325 45.1837 79.3227 48.7104 77.5977 50.483C77.5977 50.483 80.1093 50.1045 85.4407 53.4142C86.9863 51.1939 85.8409 50.483 85.8409 50.483C84.4103 50.206 84.4103 49.1582 84.9715 47.1363L80.0725 42.4648Z" fill="#FFB573"/>
<path d="M84.3249 52.7462C82.5677 52.9954 82.0249 55.6589 82.0249 55.6589C82.0249 55.6589 77.8067 52.6631 76.4727 50.5535C77.0031 50.2531 77.5175 49.9249 78.0137 49.5703C78.0137 49.5703 83.2991 51.7214 84.3249 52.7462Z" fill="#407BFF"/>
<path d="M85.9945 52.4608C85.9945 52.4608 87.3745 52.7655 88.0875 54.7135C88.4877 50.8313 86.6569 50.4759 86.6569 50.4759C86.4262 50.3114 86.1639 50.1968 85.8867 50.1396C85.6096 50.0824 85.3235 50.0837 85.0469 50.1435C86.4407 50.8821 85.9945 52.4608 85.9945 52.4608Z" fill="#407BFF"/>
<path opacity="0.2" d="M84.9727 47.1326L82.0977 44.3906C82.1483 44.8522 82.2265 45.4292 82.3323 45.9878C82.6601 47.4171 83.4937 48.6784 84.6783 49.5376C84.5403 48.9836 84.6783 48.1943 84.9727 47.1326Z" fill="black"/>
<path d="M81.1884 36.2264C80.0614 40.4502 79.4956 42.2274 80.8112 45.1263C82.7892 49.5162 88.0516 50.204 90.37 46.488C92.463 43.1229 93.9534 36.7942 90.5862 33.5907C89.8867 32.8798 89.0103 32.3698 88.0481 32.1133C87.0859 31.8569 86.0729 31.8635 85.1141 32.1324C84.1553 32.4014 83.2856 32.9228 82.5954 33.6427C81.9051 34.3626 81.4193 35.2547 81.1884 36.2264Z" fill="#FFB573"/>
<path d="M82.8828 32.1143C83.536 37.1642 90.16 34.2192 94.185 40.0678C93.8032 35.0824 88.9272 28.0059 82.8828 32.1143Z" fill="#263238"/>
<path d="M83.2973 31.9219C88.9553 35.7163 82.7637 38.7906 78.5823 38.5644C77.2023 34.373 83.2973 31.9219 83.2973 31.9219Z" fill="#263238"/>
<path opacity="0.2" d="M86.1528 39.4019C85.9772 39.1735 85.7584 38.9822 85.509 38.8388C85.2595 38.6954 84.9844 38.6029 84.6992 38.5664C85.1266 38.9348 85.6199 39.2183 86.1528 39.4019Z" fill="black"/>
<path opacity="0.2" d="M85.9354 39.7194C85.7352 39.5502 85.5006 39.4266 85.248 39.3573C84.9955 39.2879 84.7309 39.2745 84.4727 39.3178C84.9265 39.5538 85.4251 39.6907 85.9354 39.7194Z" fill="black"/>
<path d="M86.9931 39.814C86.8827 40.1648 86.9701 40.5203 87.1863 40.6034C87.4026 40.6865 87.6694 40.4741 87.7798 40.1418C87.8902 39.8094 87.8028 39.4401 87.5865 39.3524C87.3703 39.2647 87.1035 39.4678 86.9931 39.814Z" fill="#263238"/>
<path d="M91.0478 41.4768C90.9374 41.8276 91.0248 42.1785 91.241 42.2662C91.4572 42.3539 91.701 42.1369 91.8298 41.8046C91.9586 41.4722 91.8528 41.0983 91.6366 41.0152C91.4204 40.9321 91.1536 41.126 91.0478 41.4768Z" fill="#263238"/>
<path d="M91.543 40.9805L92.4124 41.0497C92.4124 41.0497 91.796 41.5667 91.543 40.9805Z" fill="#263238"/>
<path d="M89.7333 41.6094C89.7712 42.5255 89.9258 43.433 90.1933 44.3098C89.9803 44.3698 89.7564 44.3801 89.5388 44.3401C89.3212 44.3001 89.1155 44.2108 88.9375 44.079L89.7333 41.6094Z" fill="#ED893E"/>
<path d="M86.6473 44.6222C86.8181 44.7279 86.9982 44.8176 87.1855 44.89C87.1966 44.8954 87.2087 44.8984 87.2211 44.899C87.2334 44.8996 87.2457 44.8977 87.2573 44.8934C87.2689 44.8891 87.2795 44.8825 87.2885 44.8739C87.2975 44.8654 87.3047 44.8552 87.3097 44.8438C87.3187 44.8169 87.3171 44.7874 87.3051 44.7617C87.2931 44.7359 87.2717 44.7157 87.2453 44.7053C86.8207 44.5392 86.4387 44.2797 86.1274 43.9457C85.8161 43.6118 85.5835 43.212 85.4467 42.7758C85.4401 42.7489 85.4237 42.7254 85.4007 42.71C85.3777 42.6946 85.3498 42.6885 85.3225 42.6927C85.296 42.7022 85.274 42.721 85.2604 42.7457C85.2468 42.7703 85.2427 42.7991 85.2489 42.8266C85.4822 43.5757 85.9793 44.214 86.6473 44.6222Z" fill="#263238"/>
<path d="M79.1218 39.0384C79.113 39.4557 79.1902 39.8704 79.3485 40.2564C79.5068 40.6424 79.7428 40.9915 80.0418 41.2818C80.8192 41.9603 81.7116 41.1202 81.914 39.9477C82.1026 38.8906 81.914 37.2612 80.9342 37.0534C79.9544 36.8457 79.1218 37.912 79.1218 39.0384Z" fill="#FFB573"/>
<path d="M86.8692 37.5257C86.8964 37.5329 86.9249 37.5341 86.9527 37.5293C86.9804 37.5245 87.0068 37.5139 87.0302 37.498C87.2446 37.3523 87.4914 37.2617 87.7489 37.2343C88.0064 37.207 88.2667 37.2436 88.5068 37.3411C88.53 37.353 88.5554 37.3602 88.5814 37.3622C88.6074 37.3643 88.6336 37.3611 88.6584 37.353C88.6832 37.3448 88.7061 37.3318 88.7259 37.3147C88.7457 37.2976 88.7619 37.2768 88.7736 37.2534C88.7932 37.1992 88.7924 37.1396 88.7712 37.086C88.75 37.0324 88.7099 36.9885 88.6586 36.9626C88.3571 36.8334 88.0282 36.7822 87.7019 36.8137C87.3756 36.8451 87.0624 36.9582 86.791 37.1426C86.746 37.1767 86.7156 37.2267 86.7062 37.2825C86.6968 37.3383 86.709 37.3956 86.7404 37.4426C86.7718 37.4852 86.8176 37.5147 86.8692 37.5257Z" fill="#263238"/>
<path d="M87.4805 39.3125L88.3545 39.3864C88.3545 39.3864 87.7381 39.8803 87.4805 39.3125Z" fill="#263238"/>
<path d="M73.972 57.5518L72.592 60.4138C72.132 61.3785 71.672 62.3479 71.2534 63.3127C70.8348 64.2774 70.4208 65.2514 70.0666 66.2069C69.721 67.1111 69.4322 68.0362 69.2018 68.9766L69.1144 67.8364C69.1539 68.0332 69.2355 68.2191 69.3536 68.3811C69.5439 68.6885 69.7643 68.9762 70.0114 69.2397C70.5854 69.8819 71.2 70.4863 71.8514 71.0492C72.523 71.6493 73.2314 72.2356 73.9674 72.8172C74.7034 73.3988 75.4578 73.9758 76.18 74.539L76.226 74.5713C76.4905 74.7697 76.6753 75.0566 76.747 75.3801C76.8186 75.7035 76.7723 76.042 76.6165 76.3342C76.4606 76.6263 76.2056 76.8526 75.8976 76.9721C75.5896 77.0917 75.2492 77.0964 74.938 76.9855C73.9822 76.6577 73.0441 76.2802 72.1274 75.8546C71.2037 75.429 70.3025 74.956 69.4272 74.4374C68.503 73.8948 67.6245 73.2773 66.8006 72.591C66.3418 72.2005 65.9142 71.7745 65.5218 71.317C65.0188 70.7365 64.6259 70.0684 64.3626 69.3459C64.2527 69.0418 64.2149 68.7162 64.2522 68.395V68.2011C64.4146 66.9626 64.6792 65.7397 65.0434 64.5452C65.37 63.3911 65.761 62.2971 66.1796 61.2123C66.5982 60.1276 67.0536 59.0751 67.5274 58.0319C68.0012 56.9886 68.5026 55.9823 69.0868 54.9345C69.4357 54.303 70.0165 53.8333 70.7055 53.6253C71.3944 53.4172 72.1371 53.4874 72.7753 53.8209C73.4134 54.1543 73.8966 54.7246 74.1219 55.4103C74.3471 56.096 74.2967 56.8429 73.9812 57.4918L73.972 57.5518Z" fill="#FFB573"/>
<path d="M74.7132 50.6719C71.7232 50.6719 70.4122 51.3735 67.1094 56.8805C67.8454 59.2486 72.5834 62.1475 72.5834 62.1475C72.5834 62.1475 77.694 55.5372 74.7132 50.6719Z" fill="white"/>
<path d="M79.7066 78.2464L79.5548 76.8985C79.5253 76.648 79.4369 76.4082 79.2969 76.1988C79.157 75.9893 78.9695 75.8162 78.7498 75.6937L76.666 74.535C76.2561 74.3074 75.7978 74.1819 75.3295 74.1691C74.8612 74.1562 74.3967 74.2564 73.975 74.4612L73.4414 74.7151C73.5472 76.9723 75.3136 79.3312 75.3136 79.3312L75.746 80.0605C75.9164 80.3657 76.2002 80.5908 76.5355 80.6868C76.8707 80.7828 77.2302 80.7419 77.5354 80.5729L78.9844 79.7374C79.2362 79.5862 79.4387 79.3647 79.5669 79.0999C79.6952 78.8351 79.7437 78.5385 79.7066 78.2464Z" fill="#FFB573"/>
<path d="M102.957 69.9051H87.1885C87.1124 69.9082 87.0364 69.8962 86.9649 69.8698C86.8934 69.8434 86.8278 69.8031 86.7718 69.7512C86.7159 69.6993 86.6706 69.6369 86.6387 69.5675C86.6068 69.498 86.5889 69.423 86.5859 69.3466C86.5858 69.2794 86.595 69.2126 86.6135 69.1481L88.8399 59.8051C88.8957 59.5981 89.0141 59.4136 89.179 59.2771C89.3438 59.1407 89.5468 59.059 89.7599 59.0434H105.529C105.605 59.0404 105.681 59.0524 105.752 59.0788C105.824 59.1052 105.889 59.1455 105.945 59.1973C106.001 59.2492 106.047 59.3117 106.079 59.3811C106.11 59.4505 106.128 59.5256 106.131 59.602C106.136 59.6709 106.127 59.74 106.104 59.8051L103.873 69.1481C103.819 69.3549 103.702 69.5394 103.537 69.6753C103.373 69.8112 103.17 69.8916 102.957 69.9051Z" fill="#407BFF"/>
<path d="M87.2505 69.1522C87.2356 69.149 87.2216 69.1428 87.2092 69.134C87.1967 69.1253 87.1861 69.1141 87.178 69.1013C87.1699 69.0884 87.1644 69.074 87.1618 69.059C87.1592 69.044 87.1597 69.0286 87.1631 69.0137L89.2423 60.2986C89.3032 60.0629 89.4381 59.8531 89.6269 59.7001C89.8158 59.5472 90.0486 59.4592 90.2911 59.4492H105.301C105.331 59.4492 105.361 59.4614 105.382 59.483C105.404 59.5047 105.416 59.534 105.416 59.5646C105.416 59.5952 105.404 59.6246 105.382 59.6462C105.361 59.6679 105.331 59.68 105.301 59.68H90.2681C90.078 59.6919 89.8963 59.7626 89.7479 59.8825C89.5996 60.0024 89.4921 60.1655 89.4401 60.3494L87.3655 69.0645C87.3584 69.0897 87.3434 69.1119 87.3226 69.1278C87.3019 69.1436 87.2765 69.1522 87.2505 69.1522Z" fill="white"/>
<path d="M105.401 61.8108L105.194 61.9078C104.876 62.0523 104.601 62.2787 104.397 62.564C104.194 62.8493 104.069 63.1834 104.035 63.5326L103.911 65.5037C103.896 65.685 103.917 65.8674 103.972 66.0407C104.027 66.214 104.115 66.3746 104.233 66.5135C104.35 66.6524 104.493 66.7668 104.654 66.8501C104.815 66.9335 104.991 66.9842 105.171 66.9993H105.447C105.673 66.9861 105.885 66.8905 106.044 66.7305C106.204 66.5705 106.299 66.3574 106.312 66.1315L106.469 62.5263C106.484 62.3313 106.422 62.1381 106.296 61.9886C106.171 61.8391 105.991 61.7454 105.797 61.7278C105.66 61.7202 105.524 61.7488 105.401 61.8108Z" fill="#FFB573"/>
<path d="M153.671 146.647C152.162 139.88 155.175 123.645 156.431 119.971C157.687 116.296 166.404 111.902 171.694 109.525C176.984 107.147 186.672 113.619 186.672 113.619C186.672 113.619 176.616 112.562 173.727 114.007C170.838 115.452 164.679 119.879 162.687 123.673C160.695 127.467 153.993 138.708 153.671 146.647Z" fill="#263238"/>
<path d="M135.305 120.551C142.228 121.28 147.904 126.03 149.707 127.475C151.51 128.92 152.228 134.731 152.495 138.198C152.762 141.665 147.2 145.865 147.2 145.865C147.2 145.865 149.822 140.4 149.592 138.48C149.362 136.559 148.116 132.193 146.372 130.286C144.629 128.38 140.852 123.371 135.305 120.551Z" fill="#263238"/>
<path d="M151.753 142.257C152.401 132.775 147.884 126.53 148.533 119.024C149.181 111.518 157.608 94.7713 158.34 90.0352C159.72 94.2266 153.643 114.385 153.91 119.85C154.177 125.316 157.043 136.344 151.753 142.257Z" fill="#407BFF"/>
<path opacity="0.6" d="M151.753 142.257C152.401 132.775 147.884 126.53 148.533 119.024C149.181 111.518 157.608 94.7713 158.34 90.0352C159.72 94.2266 153.643 114.385 153.91 119.85C154.177 125.316 157.043 136.344 151.753 142.257Z" fill="white"/>
<path d="M144.856 105.494C145.987 105.681 147.044 106.183 147.904 106.944C148.765 107.705 149.395 108.693 149.723 109.796C148.975 110.695 148.001 111.377 146.901 111.769C145.802 112.162 144.617 112.252 143.471 112.03C140.399 111.457 139.331 109.722 139.704 107.935C140.077 106.149 141.783 104.921 144.856 105.494Z" fill="#407BFF"/>
<path d="M154.445 110.201C154.116 110.887 153.602 111.467 152.961 111.874C152.321 112.282 151.579 112.502 150.821 112.509C150.387 111.866 150.132 111.118 150.083 110.343C150.034 109.568 150.191 108.794 150.54 108.101C151.46 106.255 152.757 105.862 153.834 106.435C154.91 107.007 155.37 108.336 154.445 110.201Z" fill="#407BFF"/>
<path d="M152.365 126.216C152.913 126.747 153.301 127.421 153.486 128.162C153.67 128.903 153.644 129.681 153.409 130.408C152.662 130.615 151.874 130.617 151.125 130.415C150.377 130.213 149.697 129.814 149.154 129.258C147.691 127.786 147.746 126.438 148.634 125.598C149.522 124.758 150.902 124.739 152.365 126.216Z" fill="#407BFF"/>
<path d="M156.058 134.877C155.693 135.175 155.252 135.365 154.786 135.424C154.319 135.484 153.845 135.411 153.418 135.214C153.345 134.739 153.401 134.253 153.579 133.808C153.757 133.362 154.051 132.972 154.43 132.679C155.437 131.885 156.27 132.015 156.707 132.624C157.144 133.233 157.065 134.083 156.058 134.877Z" fill="#407BFF"/>
<path d="M158.932 121.71C158.239 122.523 157.332 123.123 156.315 123.442C155.298 123.761 154.212 123.786 153.182 123.515C152.832 122.489 152.762 121.387 152.979 120.324C153.197 119.262 153.694 118.277 154.419 117.472C156.342 115.308 158.219 115.275 159.479 116.443C160.74 117.611 160.855 119.554 158.932 121.71Z" fill="#407BFF"/>
<path d="M152.144 142.57H152.097C152.038 142.559 151.985 142.524 151.951 142.474C151.916 142.424 151.903 142.362 151.914 142.302C155.18 125.186 152.148 110.322 142.902 98.1261C142.86 98.0822 142.836 98.0234 142.836 97.9622C142.836 97.9011 142.86 97.8423 142.902 97.7984C142.923 97.7769 142.948 97.7598 142.976 97.7481C143.003 97.7365 143.033 97.7305 143.063 97.7305C143.093 97.7305 143.123 97.7365 143.15 97.7481C143.178 97.7598 143.203 97.7769 143.224 97.7984V97.8214C152.553 110.128 155.616 125.112 152.327 142.367C152.323 142.416 152.302 142.462 152.269 142.499C152.236 142.535 152.192 142.56 152.144 142.57Z" fill="#263238"/>
<path d="M143.98 92.8046C144.813 93.8523 145.335 95.1139 145.487 96.4451C145.639 97.7764 145.415 99.1238 144.841 100.333C143.495 100.523 142.123 100.348 140.868 99.8259C139.612 99.304 138.519 98.4544 137.701 97.3653C135.493 94.4664 135.903 92.1352 137.632 90.875C139.362 89.6149 141.763 89.8964 143.98 92.8046Z" fill="#407BFF"/>
<path d="M142.162 142.594L141.656 149.852L142.115 149.884L142.621 142.627L142.162 142.594Z" fill="#407BFF"/>
<path d="M141.434 152.388L141.219 155.48L141.679 155.513L141.894 152.42L141.434 152.388Z" fill="#407BFF"/>
<path d="M163.918 137.504H143.802L141.723 166.793H166.001L163.918 137.504Z" fill="#407BFF"/>
<path d="M168.95 163.303C166.716 163.303 164.531 162.638 162.673 161.392C160.815 160.147 159.367 158.376 158.512 156.305C157.657 154.233 157.434 151.953 157.869 149.754C158.305 147.555 159.381 145.535 160.961 143.949C162.541 142.364 164.554 141.284 166.746 140.847C168.937 140.409 171.209 140.634 173.273 141.492C175.338 142.35 177.102 143.803 178.344 145.667C179.585 147.532 180.248 149.724 180.248 151.966C180.244 154.972 179.052 157.853 176.935 159.979C174.817 162.104 171.945 163.299 168.95 163.303ZM168.95 141.552C166.897 141.552 164.891 142.163 163.184 143.307C161.478 144.451 160.148 146.078 159.362 147.981C158.577 149.884 158.371 151.978 158.772 153.998C159.172 156.018 160.161 157.873 161.612 159.33C163.063 160.786 164.912 161.778 166.925 162.18C168.938 162.582 171.025 162.375 172.921 161.587C174.818 160.799 176.438 159.464 177.579 157.752C178.719 156.039 179.328 154.026 179.328 151.966C179.323 149.206 178.228 146.56 176.283 144.608C174.338 142.656 171.701 141.557 168.95 141.552Z" fill="#407BFF"/>
</g>
<defs>
<clipPath id="clip0_1090_48949">
<rect width="230" height="172" fill="white"/>
</clipPath>
</defs>
</svg>
