<svg width="6" height="12" viewBox="0 0 6 12" fill="none" xmlns="http://www.w3.org/2000/svg">
<path d="M5.66536 1.86866V0.780783C5.66536 0.686492 5.57909 0.63442 5.52083 0.692121L0.469862 5.64736C0.426947 5.68928 0.392222 5.74295 0.368335 5.80429C0.344448 5.86563 0.332031 5.93302 0.332031 6.0013C0.332031 6.06959 0.344448 6.13697 0.368335 6.19831C0.392222 6.25965 0.426947 6.31333 0.469862 6.35525L5.52083 11.3105C5.58021 11.3682 5.66536 11.3161 5.66536 11.2218V10.1339C5.66536 10.065 5.63959 9.99884 5.59702 9.95662L1.56342 6.00201L5.59702 2.04598C5.63959 2.00376 5.66536 1.93761 5.66536 1.86866V1.86866Z" fill="#8C8C8C"/>
</svg>
