<svg width="6" height="12" viewBox="0 0 6 12" fill="none" xmlns="http://www.w3.org/2000/svg">
<path d="M5.52752 5.64664L0.476569 0.692C0.463371 0.678951 0.447509 0.670841 0.430806 0.668602C0.414103 0.666363 0.397237 0.670087 0.382143 0.679345C0.367049 0.688602 0.35434 0.703019 0.345476 0.720939C0.336612 0.738859 0.331953 0.759556 0.332032 0.780652V1.86839C0.332032 1.93734 0.357802 2.00348 0.400379 2.0457L4.43397 6.00124L0.400379 9.95679C0.356682 9.999 0.332032 10.0651 0.332032 10.1341V11.2218C0.332032 11.3161 0.418306 11.3682 0.476569 11.3105L5.52752 6.35585C5.57045 6.31379 5.60518 6.25999 5.62906 6.19855C5.65295 6.1371 5.66536 6.06962 5.66536 6.00124C5.66536 5.93286 5.65295 5.86539 5.62906 5.80394C5.60518 5.74249 5.57045 5.68869 5.52752 5.64664Z" fill="#8C8C8C"/>
</svg>
